<svg xmlns="http://www.w3.org/2000/svg" width="64" height="64" id="gym"><path fill="#273951" d="M12 10.025h8.957c.554 0 1 .446 1 1s-.446 1-1 1H12c-.554 0-1-.446-1-1s.446-1 1-1z"></path><path fill="#273951" d="M19.957 9.025c.554 0 1 .446 1 1v2c0 .554-.446 1-1 1s-1-.446-1-1v-2c0-.554.446-1 1-1zm-7 0c.554 0 1 .446 1 1v2c0 .554-.446 1-1 1s-1-.446-1-1v-2c0-.554.446-1 1-1z"></path><path fill="#f9c3ad" d="M18.457 10.025c.277 0 .5.223.5.5v2a.499.499 0 1 1-1 0v-2c0-.277.223-.5.5-.5z"></path><path fill="#273951" d="M50.957 10.025H42c-.554 0-1 .446-1 1s.446 1 1 1h8.957c.554 0 1-.446 1-1s-.446-1-1-1z"></path><path fill="#273951" d="M43 9.025c-.554 0-1 .446-1 1v2c0 .554.446 1 1 1s1-.446 1-1v-2c0-.554-.446-1-1-1zm7 0c-.554 0-1 .446-1 1v2c0 .554.446 1 1 1s1-.446 1-1v-2c0-.554-.446-1-1-1z"></path><path fill="#f9c3ad" d="M44.5 10.025c-.277 0-.5.223-.5.5v2a.499.499 0 1 0 1 0v-2c0-.277-.223-.5-.5-.5z"></path><path fill="#ffd6b6" fill-rule="evenodd" style="line-height:normal;text-indent:0;text-align:start;text-decoration-line:none;text-decoration-style:solid;text-decoration-color:#000;text-transform:none;block-progression:tb;white-space:normal;isolation:auto;mix-blend-mode:normal;solid-color:#000;solid-opacity:1" d="M-155.16 2384.295a2.5 2.5 0 0 0-2.463 2.535v7.5h-7.47a2.5 2.5 0 1 0 0 5h9.97a2.5 2.5 0 0 0 2.5-2.5v-10a2.5 2.5 0 0 0-2.537-2.535zm-30.006 0a2.5 2.5 0 0 0-2.463 2.535v10a2.5 2.5 0 0 0 2.5 2.5h9.97a2.5 2.5 0 1 0 0-5h-7.47v-7.5a2.5 2.5 0 0 0-2.537-2.535z" color="#000" font-family="sans-serif" font-weight="400" overflow="visible" transform="translate(201.587 -2375.305)"></path><path fill="none" stroke="#f9c3ad" stroke-linecap="round" stroke-linejoin="round" stroke-width="5" d="M31.457 29.56v-18"></path><path fill="#f9c3ad" d="M25.957 19.025h11c.554 0 1 .446 1 1v5c0 .554-.446 1-1 1h-11c-.554 0-1-.446-1-1v-5c0-.554.446-1 1-1z"></path><path fill="none" stroke="#f9c3ad" stroke-width="5" d="M27.457 36.025v20"></path><path fill="#f5583b" d="M24.957 36.025h5v7h-5z"></path><path fill="#f5583b" d="M24.957 35.025h13v5h-13z"></path><path fill="#273951" d="M26.957 19.025v3c0 1.108-.892 2-2 2v11h13v-11c-1.108 0-2-.892-2-2v-3h-2.05a2.498 2.498 0 0 1-4.895 0z"></path><path fill="#f8b79c" fill-rule="evenodd" d="M-172.499 2391.04a2.5 2.5 0 0 0-.13.827v1.902c.59.347 1.269.56 2 .56h1c.73 0 1.408-.213 2-.56v-1.902a2.5 2.5 0 0 0-.131-.826c-.28.76-.997 1.289-1.87 1.289h-1a1.966 1.966 0 0 1-1.869-1.29z" color="#000" font-family="sans-serif" font-weight="400" overflow="visible" style="line-height:normal;text-indent:0;text-align:start;text-decoration-line:none;text-decoration-style:solid;text-decoration-color:#000;text-transform:none;white-space:normal;isolation:auto;mix-blend-mode:normal;solid-color:#000;solid-opacity:1" transform="translate(201.587 -2375.305)"></path><path fill="#f9c3ad" d="M35.958 8.125v5.577a4.322 4.322 0 0 1-4.323 4.323h-.346a4.322 4.322 0 0 1-4.322-4.323V8.125" class="st3"></path><path fill="#234957" d="M29.958 12.02a.5.5 0 0 1-.5.5.5.5 0 0 1-.5-.5.5.5 0 0 1 .5-.5.5.5 0 0 1 .5.5zm4-.041a.5.5 0 0 1-.5.5.5.5 0 0 1-.5-.5.5.5 0 0 1 .5-.5.5.5 0 0 1 .5.5z"></path><path fill="#273951" d="M26.958 9.025h9v2h-9z"></path><path fill="#273951" d="M29.458 6.092H28.29c-.64 0-1.16-.478-1.166-1.117-.658.082-1.167.68-1.167 1.361v2.433c0 .737.597 1.256 1.333 1.256h8.667c.276 0 .5-.15.5-.426V6.83c0-.367-.299-.747-.667-.737h-4z" class="st6"></path><path fill="#f2f2f2" d="M26.958 10.025v1h9v-1z"></path><path fill="#ffd6b6" fill-rule="evenodd" style="line-height:normal;text-indent:0;text-align:start;text-decoration-line:none;text-decoration-style:solid;text-decoration-color:#000;text-transform:none;block-progression:tb;white-space:normal;isolation:auto;mix-blend-mode:normal;solid-color:#000;solid-opacity:1" d="M-168.629 2411.33v20h5v-20h-5z" color="#000" font-family="sans-serif" font-weight="400" overflow="visible" transform="translate(201.587 -2375.305)"></path><path fill="#f5583b" d="M32.957 36.025h5v7h-5z"></path><path fill="#ffd6b6" fill-rule="evenodd" style="line-height:normal;text-indent:0;text-align:start;text-decoration-line:none;text-decoration-style:solid;text-decoration-color:#000;text-transform:none;block-progression:tb;white-space:normal;isolation:auto;mix-blend-mode:normal;solid-color:#000;solid-opacity:1" d="M-170.168 2384.33a2.5 2.5 0 0 0-2.46 2.535v18a2.5 2.5 0 1 0 5 0v-18a2.5 2.5 0 0 0-2.54-2.535z" color="#000" font-family="sans-serif" font-weight="400" overflow="visible" transform="translate(201.587 -2375.305)"></path><path fill="#ffd6b6" d="M25.957 19.025h11c.554 0 1 .446 1 1v5c0 .554-.446 1-1 1h-11c-.554 0-1-.446-1-1v-5c0-.554.446-1 1-1z"></path><path fill="#ffd6b6" fill-rule="evenodd" style="line-height:normal;text-indent:0;text-align:start;text-decoration-line:none;text-decoration-style:solid;text-decoration-color:#000;text-transform:none;block-progression:tb;white-space:normal;isolation:auto;mix-blend-mode:normal;solid-color:#000;solid-opacity:1" d="M-176.629 2411.33v20h5v-20h-5z" color="#000" font-family="sans-serif" font-weight="400" overflow="visible" transform="translate(201.587 -2375.305)"></path><path fill="#354d62" d="M24.957 36.025h5v7h-5z"></path><path fill="#354d62" d="M24.957 35.025h13v5h-13z"></path><path fill="#5acfd6" d="M26.957 19.025v3c0 1.108-.892 2-2 2v11h13v-11c-1.108 0-2-.892-2-2v-3h-2a2.5 2.5 0 0 1-2.5 2.5 2.5 2.5 0 0 1-2.5-2.5z"></path><path fill="#d0e3eb" d="M25.957 55.027h3c.554 0 1 .446 1 1v1.998c0 .554-.446 1-1 1h-3c-.554 0-1-.446-1-1v-1.998c0-.554.446-1 1-1zm-1-1.002h5v1h-5z"></path><path fill="#273951" d="M24.957 55.025h5v1h-5z"></path><path fill="#354d62" d="M32.957 36.025h5v7h-5z"></path><path fill="#d0e3eb" d="M33.957 55.027h3c.554 0 1 .446 1 1v1.998c0 .554-.446 1-1 1h-3c-.554 0-1-.446-1-1v-1.998c0-.554.446-1 1-1zm-1-1.002h5v1h-5z"></path><path fill="#273951" d="M32.957 55.025h5v1h-5z"></path><path fill="#ffcaa0" fill-rule="evenodd" style="line-height:normal;text-indent:0;text-align:start;text-decoration-line:none;text-decoration-style:solid;text-decoration-color:#000;text-transform:none;white-space:normal;isolation:auto;mix-blend-mode:normal;solid-color:#000;solid-opacity:1" d="M-172.499 2391.04a2.5 2.5 0 0 0-.13.827v1.902c.59.347 1.269.56 2 .56h1c.73 0 1.408-.213 2-.56v-1.902a2.5 2.5 0 0 0-.131-.826c-.28.76-.997 1.289-1.87 1.289h-1a1.966 1.966 0 0 1-1.869-1.29z" color="#000" font-family="sans-serif" font-weight="400" overflow="visible" transform="translate(201.587 -2375.305)"></path><path fill="#ffd6b6" d="M35.957 8.115v5.583a4.327 4.327 0 0 1-4.326 4.327h-.347a4.327 4.327 0 0 1-4.327-4.327V8.115" class="st3"></path><path fill="#234957" d="M29.958 12.02a.5.5 0 0 1-.5.5.5.5 0 0 1-.5-.5.5.5 0 0 1 .5-.5.5.5 0 0 1 .5.5zm4-.041a.5.5 0 0 1-.5.5.5.5 0 0 1-.5-.5.5.5 0 0 1 .5-.5.5.5 0 0 1 .5.5z"></path><path fill="#273951" d="M29.458 6.092H28.29c-.64 0-1.16-.478-1.166-1.117-.658.082-1.167.68-1.167 1.361v2.433c0 .737.597 1.256 1.333 1.256h8.667c.276 0 .5-.15.5-.426V6.83c0-.367-.299-.747-.667-.737h-4z" class="st6"></path><path fill="#f2f2f2" d="M26.957 10.025v1h9v-1z"></path></svg>